<?xml version="1.0" standalone="no"?><!DOCTYPE svg PUBLIC "-//W3C//DTD SVG 1.1//EN" "http://www.w3.org/Graphics/SVG/1.1/DTD/svg11.dtd"><svg t="1759052376924" class="icon" viewBox="0 0 1167 1024" version="1.1" xmlns="http://www.w3.org/2000/svg" p-id="3879" width="291.75" height="256" xmlns:xlink="http://www.w3.org/1999/xlink"><path d="M133.568121 990.60797a100.176091 100.176091 0 0 1-83.88078-45.479945l-1.001761-1.602818v-0.400704l-0.868193-1.402466-0.400704-0.66784-0.667841-1.202113-0.467488-0.868193-0.534273-1.001761-0.601056-1.135329-0.33392-0.734625-0.734625-1.402465v-0.467488l-0.801409-1.669602a101.511772 101.511772 0 0 1-9.349768-36.798017V128.759669A101.111068 101.111068 0 0 1 134.436314 33.659167h280.493054a100.176091 100.176091 0 0 1 62.242744 21.771603 101.044284 101.044284 0 0 1 10.68545 9.750473l64.847323 68.654014a101.044284 101.044284 0 0 0 40.604709 26.112568 100.176091 100.176091 0 0 0 32.323485 5.409509H1033.616905a112.130438 112.130438 0 0 1 14.492141 1.068545 106.320224 106.320224 0 0 1 13.356812 2.871714l2.003522 0.601057 2.13709 0.667841 2.270658 0.801408a101.444988 101.444988 0 0 1 66.049436 95.300855v622.36066a101.778908 101.778908 0 0 1-8.949064 41.873606l-0.868193 1.869953-0.868193 1.736386a100.576795 100.576795 0 0 1-89.891346 55.697906z" fill="#FDE330" p-id="3880"></path></svg>