<?xml version="1.0" standalone="no"?><!DOCTYPE svg PUBLIC "-//W3C//DTD SVG 1.1//EN" "http://www.w3.org/Graphics/SVG/1.1/DTD/svg11.dtd"><svg t="1751271243357" class="icon" viewBox="0 0 1281 1024" version="1.1" xmlns="http://www.w3.org/2000/svg" p-id="4929" xmlns:xlink="http://www.w3.org/1999/xlink" width="250.1953125" height="200"><path d="M102.49151 412.711349L0 788.818588V67.717605C0 30.198391 30.198391 0 67.717605 0h320.28597c18.302055 0 34.773905 7.320822 47.585344 20.132261l138.180518 138.180518q6.405719 3.660411 9.151028 3.660411h482.25916c37.519214 0 67.717605 30.198391 67.717605 67.717605v94.255586H219.624665c-54.906166 0-102.49151 36.604111-117.133155 89.680071v-0.915103z m1164.925827-9.151027a68.998749 68.998749 0 0 0-53.991064-26.537981H219.624665c-30.198391 0-56.736372 20.132261-64.972297 49.41555l-140.010724 512.457551c-5.490617 20.132261-0.915103 42.094727 11.896336 58.566578s32.9437 26.53798 53.075961 26.53798h994.716711c30.198391 0 56.736372-20.132261 64.972297-49.41555l140.010724-512.457551c5.490617-20.132261 0.915103-42.094727-11.896336-58.566577z" fill="#F2B224" p-id="4930"></path></svg>